<?xml version="1.0" encoding="UTF-8"?>
<!DOCTYPE svg PUBLIC "-//W3C//DTD SVG 1.1//EN" "http://www.w3.org/Graphics/SVG/1.1/DTD/svg11.dtd">
<svg xmlns="http://www.w3.org/2000/svg" version="1.1" width="200px" height="200px" style="shape-rendering:geometricPrecision; text-rendering:geometricPrecision; image-rendering:optimizeQuality; fill-rule:evenodd; clip-rule:evenodd" xmlns:xlink="http://www.w3.org/1999/xlink">
<g><path style="opacity:0.889" fill="#000000" d="M 84.5,45.5 C 84.634,47.2915 84.3007,48.9582 83.5,50.5C 72.5,50.5 61.5,50.5 50.5,50.5C 50.5,60.8333 50.5,71.1667 50.5,81.5C 49.609,82.1098 48.609,82.4431 47.5,82.5C 39.2732,80.1084 33.7732,74.775 31,66.5C 30.5001,54.5046 30.3335,42.5046 30.5,30.5C 44.1707,30.3334 57.8374,30.5001 71.5,31C 77.8118,34.1408 82.1452,38.9741 84.5,45.5 Z"/></g>
<g><path style="opacity:0.859" fill="#000000" d="M 151.5,82.5 C 149.95,81.5592 148.284,80.8925 146.5,80.5C 146.181,70.5837 146.514,60.7504 147.5,51C 136.839,50.5002 126.172,50.3335 115.5,50.5C 114.699,48.9582 114.366,47.2915 114.5,45.5C 116.855,38.9741 121.188,34.1408 127.5,31C 141.163,30.5001 154.829,30.3334 168.5,30.5C 168.667,42.5046 168.5,54.5046 168,66.5C 164.826,74.4563 159.326,79.7896 151.5,82.5 Z"/></g>
<g><path style="opacity:0.909" fill="#f0a128" d="M 114.5,45.5 C 114.366,47.2915 114.699,48.9582 115.5,50.5C 113.017,65.6879 119.017,76.1879 133.5,82C 138.155,82.4992 142.821,82.6658 147.5,82.5C 148.708,83.2341 150.041,83.5674 151.5,83.5C 156.302,87.9038 160.635,92.7372 164.5,98C 160.591,103.271 156.257,108.104 151.5,112.5C 149.938,112.733 148.605,113.4 147.5,114.5C 124.948,112.383 113.948,122.716 114.5,145.5C 113.699,147.042 113.366,148.708 113.5,150.5C 109.181,155.151 104.514,159.484 99.5,163.5C 94.4804,159.144 89.4804,154.811 84.5,150.5C 83.962,148.883 83.6287,147.216 83.5,145.5C 84.8694,122.206 73.8694,111.873 50.5,114.5C 50.0269,113.094 49.0269,112.427 47.5,112.5C 42.3086,108.473 37.9753,103.64 34.5,98C 38.8863,92.8249 43.2197,87.6582 47.5,82.5C 48.609,82.4431 49.609,82.1098 50.5,81.5C 67.6187,84.8667 78.7854,78.2 84,61.5C 84.6781,57.7789 84.5114,54.1122 83.5,50.5C 84.3007,48.9582 84.634,47.2915 84.5,45.5C 89.4355,41.241 94.4355,36.9076 99.5,32.5C 104.3,37.1483 109.3,41.4816 114.5,45.5 Z M 98.5,73.5 C 99.2389,73.369 99.9056,73.5357 100.5,74C 107.833,82.6667 115.833,90.6667 124.5,98C 116.014,105.986 107.681,114.152 99.5,122.5C 91.3191,114.152 82.9858,105.986 74.5,98C 82.7024,89.965 90.7024,81.7983 98.5,73.5 Z"/></g>
<g><path style="opacity:0.635" fill="#553911" d="M 146.5,80.5 C 148.284,80.8925 149.95,81.5592 151.5,82.5C 151.5,82.8333 151.5,83.1667 151.5,83.5C 150.041,83.5674 148.708,83.2341 147.5,82.5C 147.167,81.8333 146.833,81.1667 146.5,80.5 Z"/></g>
<g><path style="opacity:0.004" fill="#f1a129" d="M 32.5,96.5 C 33.5735,97.2506 33.7401,98.2506 33,99.5C 32.5172,98.552 32.3505,97.552 32.5,96.5 Z"/></g>
<g><path style="opacity:0.887" fill="#000000" d="M 47.5,112.5 C 49.0269,112.427 50.0269,113.094 50.5,114.5C 50.5,125.167 50.5,135.833 50.5,146.5C 61.5813,146.81 72.5813,146.477 83.5,145.5C 83.6287,147.216 83.962,148.883 84.5,150.5C 81.0499,158.115 75.3832,163.615 67.5,167C 67.8333,167.333 68.1667,167.667 68.5,168C 55.8377,168.5 43.1711,168.667 30.5,168.5C 30.3334,155.496 30.5001,142.496 31,129.5C 34.4084,121.594 39.9084,115.928 47.5,112.5 Z"/></g>
<g><path style="opacity:0.86" fill="#000000" d="M 151.5,112.5 C 159.541,116.046 165.041,122.046 168,130.5C 168.5,143.162 168.667,155.829 168.5,168.5C 155.829,168.667 143.162,168.5 130.5,168C 130.833,167.667 131.167,167.333 131.5,167C 123.635,163.633 117.968,158.133 114.5,150.5C 114.433,149.041 114.766,147.708 115.5,146.5C 126.172,146.667 136.839,146.5 147.5,146C 146.178,135.5 146.178,125 147.5,114.5C 148.605,113.4 149.938,112.733 151.5,112.5 Z"/></g>
<g><path style="opacity:0.62" fill="#936218" d="M 114.5,145.5 C 115.167,145.5 115.5,145.833 115.5,146.5C 114.766,147.708 114.433,149.041 114.5,150.5C 114.167,150.5 113.833,150.5 113.5,150.5C 113.366,148.708 113.699,147.042 114.5,145.5 Z"/></g>
</svg>
