<?xml version="1.0" encoding="UTF-8"?>
<!DOCTYPE svg PUBLIC "-//W3C//DTD SVG 1.1//EN" "http://www.w3.org/Graphics/SVG/1.1/DTD/svg11.dtd">
<svg xmlns="http://www.w3.org/2000/svg" version="1.1" width="200px" height="200px" style="shape-rendering:geometricPrecision; text-rendering:geometricPrecision; image-rendering:optimizeQuality; fill-rule:evenodd; clip-rule:evenodd" xmlns:xlink="http://www.w3.org/1999/xlink">
<g><path style="opacity:0.987" fill="#f0a028" d="M 199.5,76.5 C 199.5,91.8333 199.5,107.167 199.5,122.5C 185.613,163.16 157.28,186.993 114.5,194C 71.357,198.502 37.1903,183.335 12,148.5C 6.40654,138.994 2.23987,128.994 -0.5,118.5C -0.5,105.833 -0.5,93.1667 -0.5,80.5C 14.7084,31.4341 48.2084,6.10081 100,4.5C 141.838,4.90526 172.838,23.2386 193,59.5C 195.493,65.1596 197.659,70.8263 199.5,76.5 Z"/></g>
<g><path style="opacity:1" fill="#adb7ac" d="M 74.5,43.5 C 64.4478,43.2162 54.4478,43.5496 44.5,44.5C 44.6107,43.8826 44.944,43.3826 45.5,43C 55.3422,42.1754 65.0089,42.342 74.5,43.5 Z"/></g>
<g><path style="opacity:1" fill="#f6f6f6" d="M 74.5,43.5 C 76.7525,43.9156 78.2525,45.249 79,47.5C 79.6107,52.496 80.1107,57.496 80.5,62.5C 80.1706,65.2282 80.8372,67.5615 82.5,69.5C 85.747,75.1479 86.747,81.1479 85.5,87.5C 81.6733,89.246 78.0066,91.246 74.5,93.5C 76.6417,95.6183 78.3083,97.9516 79.5,100.5C 79.427,102.027 80.0937,103.027 81.5,103.5C 84.5,108.5 88.5,112.5 93.5,115.5C 93.8333,116.5 94.5,117.167 95.5,117.5C 95.9731,118.906 96.9731,119.573 98.5,119.5C 104.391,125.407 108.057,124.074 109.5,115.5C 111.026,113.613 113.026,112.613 115.5,112.5C 121.393,114.576 127.393,116.242 133.5,117.5C 136.123,119.265 139.123,119.932 142.5,119.5C 146.742,119.079 150.742,119.746 154.5,121.5C 155.833,132.5 155.833,143.5 154.5,154.5C 148.894,155.407 143.227,155.74 137.5,155.5C 131.858,155.504 126.525,154.504 121.5,152.5C 117.767,150.589 113.767,149.256 109.5,148.5C 104.749,147.29 100.416,145.29 96.5,142.5C 96.0269,141.094 95.0269,140.427 93.5,140.5C 89.4289,138.063 85.4289,135.563 81.5,133C 77.6636,127.997 73.3303,123.497 68.5,119.5C 68.2624,117.596 67.2624,116.262 65.5,115.5C 65.5,114.833 65.1667,114.5 64.5,114.5C 64.573,112.973 63.9063,111.973 62.5,111.5C 60.2515,107.246 57.5848,103.246 54.5,99.5C 52.171,94.0116 49.8377,88.5116 47.5,83C 45.2054,76.026 43.872,68.8593 43.5,61.5C 43.2598,55.773 43.5931,50.1064 44.5,44.5C 54.4478,43.5496 64.4478,43.2162 74.5,43.5 Z"/></g>
<g><path style="opacity:1" fill="#ada57e" d="M 44.5,44.5 C 43.5931,50.1064 43.2598,55.773 43.5,61.5C 42.3493,56.3497 42.1826,51.0164 43,45.5C 43.3826,44.944 43.8826,44.6107 44.5,44.5 Z"/></g>
<g><path style="opacity:1" fill="#b7af8f" d="M 80.5,62.5 C 81.6118,64.5994 82.2785,66.9327 82.5,69.5C 80.8372,67.5615 80.1706,65.2282 80.5,62.5 Z"/></g>
<g><path style="opacity:1" fill="#b1a273" d="M 79.5,100.5 C 80.9063,100.973 81.573,101.973 81.5,103.5C 80.0937,103.027 79.427,102.027 79.5,100.5 Z"/></g>
<g><path style="opacity:1" fill="#b3a578" d="M 81.5,103.5 C 85.8333,107.167 89.8333,111.167 93.5,115.5C 88.5,112.5 84.5,108.5 81.5,103.5 Z"/></g>
<g><path style="opacity:1" fill="#b4a26e" d="M 62.5,111.5 C 63.9063,111.973 64.573,112.973 64.5,114.5C 63.0937,114.027 62.427,113.027 62.5,111.5 Z"/></g>
<g><path style="opacity:1" fill="#b4a26e" d="M 65.5,115.5 C 67.2624,116.262 68.2624,117.596 68.5,119.5C 66.7376,118.738 65.7376,117.404 65.5,115.5 Z"/></g>
<g><path style="opacity:1" fill="#b4a16c" d="M 95.5,117.5 C 97.0269,117.427 98.0269,118.094 98.5,119.5C 96.9731,119.573 95.9731,118.906 95.5,117.5 Z"/></g>
<g><path style="opacity:1" fill="#b7b192" d="M 133.5,117.5 C 136.689,117.858 139.689,118.525 142.5,119.5C 139.123,119.932 136.123,119.265 133.5,117.5 Z"/></g>
<g><path style="opacity:1" fill="#aaa683" d="M 154.5,121.5 C 155.117,121.611 155.617,121.944 156,122.5C 156.667,132.833 156.667,143.167 156,153.5C 155.617,154.056 155.117,154.389 154.5,154.5C 155.833,143.5 155.833,132.5 154.5,121.5 Z"/></g>
<g><path style="opacity:1" fill="#b3a271" d="M 93.5,140.5 C 95.0269,140.427 96.0269,141.094 96.5,142.5C 94.9731,142.573 93.9731,141.906 93.5,140.5 Z"/></g>
<g><path style="opacity:1" fill="#bfb99e" d="M 109.5,148.5 C 113.767,149.256 117.767,150.589 121.5,152.5C 117.085,152.139 113.085,150.806 109.5,148.5 Z"/></g>
<g><path style="opacity:1" fill="#afa478" d="M 154.5,154.5 C 154.389,155.117 154.056,155.617 153.5,156C 147.984,156.817 142.65,156.651 137.5,155.5C 143.227,155.74 148.894,155.407 154.5,154.5 Z"/></g>
</svg>
