<?xml version="1.0" encoding="UTF-8"?>
<!DOCTYPE svg PUBLIC "-//W3C//DTD SVG 1.1//EN" "http://www.w3.org/Graphics/SVG/1.1/DTD/svg11.dtd">
<svg xmlns="http://www.w3.org/2000/svg" version="1.1" width="100px" height="104px" style="shape-rendering:geometricPrecision; text-rendering:geometricPrecision; image-rendering:optimizeQuality; fill-rule:evenodd; clip-rule:evenodd" xmlns:xlink="http://www.w3.org/1999/xlink">
<g><path style="opacity:0.949" fill="#f0a127" d="M 15.5,8.5 C 41.5021,8.33336 67.5021,8.50003 93.5,9C 95,10.5 96.5,12 98,13.5C 98.6667,39.5 98.6667,65.5 98,91.5C 96.5,93 95,94.5 93.5,96C 67.5,96.6667 41.5,96.6667 15.5,96C 14,94.5 12.5,93 11,91.5C 10.3333,65.5 10.3333,39.5 11,13.5C 12.7073,11.9625 14.2073,10.2959 15.5,8.5 Z M 28.5,20.5 C 36.8836,21.8802 38.5503,26.0468 33.5,33C 26.2199,34.7187 23.0532,31.8854 24,24.5C 24.9066,22.3909 26.4066,21.0576 28.5,20.5 Z M 65.5,39.5 C 76.9022,38.7353 82.7355,44.0687 83,55.5C 83.4997,63.4931 83.6664,71.4931 83.5,79.5C 79.5,79.5 75.5,79.5 71.5,79.5C 71.6664,70.8269 71.4998,62.1603 71,53.5C 66.5054,48.2309 61.8387,48.2309 57,53.5C 55.6614,62.1074 55.1614,70.7741 55.5,79.5C 52.1667,79.5 48.8333,79.5 45.5,79.5C 45.5,66.5 45.5,53.5 45.5,40.5C 48.8333,40.5 52.1667,40.5 55.5,40.5C 55.2011,42.604 55.5344,44.604 56.5,46.5C 59.0233,43.4222 62.0233,41.0888 65.5,39.5 Z M 24.5,40.5 C 28.1667,40.5 31.8333,40.5 35.5,40.5C 35.5,53.5 35.5,66.5 35.5,79.5C 31.8333,79.5 28.1667,79.5 24.5,79.5C 24.5,66.5 24.5,53.5 24.5,40.5 Z"/></g>
</svg>
