<?xml version="1.0" encoding="UTF-8"?>
<!DOCTYPE svg PUBLIC "-//W3C//DTD SVG 1.1//EN" "http://www.w3.org/Graphics/SVG/1.1/DTD/svg11.dtd">
<svg xmlns="http://www.w3.org/2000/svg" version="1.1" width="213px" height="208px" style="shape-rendering:geometricPrecision; text-rendering:geometricPrecision; image-rendering:optimizeQuality; fill-rule:evenodd; clip-rule:evenodd" xmlns:xlink="http://www.w3.org/1999/xlink">
<g><path style="opacity:1" fill="#12525f" d="M 91.5,-0.5 C 100.833,-0.5 110.167,-0.5 119.5,-0.5C 175.319,11.4889 205.319,45.9889 209.5,103C 205.694,160.471 175.694,195.304 119.5,207.5C 110.167,207.5 100.833,207.5 91.5,207.5C 35.4431,195.44 5.44312,160.773 1.5,103.5C 5.44312,46.227 35.4431,11.5603 91.5,-0.5 Z"/></g>
<g><path style="opacity:1" fill="#f6f7f6" d="M 92.5,7.5 C 133.104,5.05446 164.937,20.3878 188,53.5C 207.149,89.6248 205.816,124.958 184,159.5C 155.524,194.547 119.357,206.381 75.5,195C 28.7187,175.96 6.88533,141.127 10,90.5C 16.6945,53.2839 37.5279,27.4506 72.5,13C 79.3076,11.224 85.9742,9.39069 92.5,7.5 Z"/></g>
<g><path style="opacity:1" fill="#03505d" d="M 122.5,174.5 C 122.565,174.062 122.399,173.728 122,173.5C 119.651,176.017 117.151,178.35 114.5,180.5C 107.925,179.366 107.925,178.532 114.5,178C 112.942,177.79 111.609,177.29 110.5,176.5C 116.997,176.82 119.164,173.82 117,167.5C 112.277,162.769 109.277,157.102 108,150.5C 106.337,146.504 104.171,142.837 101.5,139.5C 106.021,129.23 105.354,119.396 99.5,110C 97.6354,108.699 95.6354,108.365 93.5,109C 91.9337,111.93 91.1004,115.097 91,118.5C 88.4358,112.771 84.6025,108.105 79.5,104.5C 78.4382,102.243 76.7715,101.077 74.5,101C 76.0375,102.707 77.7041,104.207 79.5,105.5C 84.3511,111.863 88.1845,118.863 91,126.5C 94.2945,122.457 96.1279,117.79 96.5,112.5C 100.309,115.917 101.976,120.25 101.5,125.5C 100.743,130.907 99.9094,136.24 99,141.5C 103.522,147.043 106.522,153.376 108,160.5C 111.392,164.344 113.558,168.677 114.5,173.5C 109.22,172.694 104.554,170.527 100.5,167C 91.611,167.053 83.9443,164.053 77.5,158C 71.5349,153.041 66.7016,147.208 63,140.5C 60.0646,132.626 56.5646,124.959 52.5,117.5C 44.5626,114.533 37.2293,110.533 30.5,105.5C 32.5,104.833 34.5,104.167 36.5,103.5C 43.6591,103.79 45.4925,101.123 42,95.5C 35.0258,91.2701 28.1925,86.9368 21.5,82.5C 21.1436,80.8102 20.1436,79.8102 18.5,79.5C 30.0375,43.4651 54.3709,21.6317 91.5,14C 95.1667,13.3333 98.8333,13.3333 102.5,14C 74.9696,28.2319 66.1363,50.0652 76,79.5C 80.0024,89.1688 86.5024,96.6688 95.5,102C 127.641,113.448 138.475,135.282 128,167.5C 126.629,170.266 124.796,172.599 122.5,174.5 Z"/></g>
<g><path style="opacity:1" fill="#e3701e" d="M 112.5,16.5 C 144.079,17.2333 167.912,31.2333 184,58.5C 196.259,81.3706 198.925,105.371 192,130.5C 177.514,169.337 149.68,190.17 108.5,193C 132.777,180.947 142.61,161.447 138,134.5C 131.386,115.222 118.22,102.722 98.5,97C 79.6034,82.5963 74.1034,64.0963 82,41.5C 88.7981,28.8517 98.9648,20.5184 112.5,16.5 Z"/></g>
<g><path style="opacity:1" fill="#fdf2ea" d="M 98.5,29.5 C 104.722,28.7792 110.056,30.6125 114.5,35C 120.588,35.2717 126.255,36.9383 131.5,40C 137.928,44.4234 143.761,49.5901 149,55.5C 154.573,65.6452 159.907,75.9785 165,86.5C 174.196,90.0247 182.029,95.5247 188.5,103C 183.833,104.333 179.167,105.667 174.5,107C 180.618,111.118 186.118,115.951 191,121.5C 191.667,122.167 191.667,122.833 191,123.5C 185.766,118.797 179.933,114.963 173.5,112C 171.47,110.104 169.803,107.937 168.5,105.5C 169.912,104.194 171.579,103.36 173.5,103C 176.882,102.824 180.215,102.324 183.5,101.5C 180.384,98.7683 177.051,96.2683 173.5,94C 168.95,92.9318 164.783,91.0985 161,88.5C 156.099,77.0298 150.432,66.0298 144,55.5C 135.906,45.3701 125.406,39.8701 112.5,39C 109.328,35.7155 105.495,33.5488 101,32.5C 99.7202,32.6135 98.8869,33.2801 98.5,34.5C 103.915,41.3298 107.748,48.9965 110,57.5C 110.837,59.8442 112.171,61.8442 114,63.5C 113.399,68.589 112.899,73.7556 112.5,79C 111.802,84.5704 113.302,89.4037 117,93.5C 117.174,88.1385 119.007,83.4718 122.5,79.5C 126.159,87.1603 129.993,94.4936 134,101.5C 129.189,97.6941 125.522,93.0274 123,87.5C 119.367,100.709 115.034,100.709 110,87.5C 109.129,80.2303 109.629,73.0636 111.5,66C 108.04,60.6343 105.54,54.8009 104,48.5C 101.333,44.5 98.6667,40.5 96,36.5C 95.3333,35.1667 95.3333,33.8333 96,32.5C 97.045,31.6266 97.8783,30.6266 98.5,29.5 Z"/></g>
<g><path style="opacity:1" fill="#fce8db" d="M 115.5,45.5 C 119.995,45.7945 121.162,47.7945 119,51.5C 117.558,49.6089 116.391,47.6089 115.5,45.5 Z"/></g>
<g><path style="opacity:1" fill="#034f5c" d="M 18.5,79.5 C 20.1436,79.8102 21.1436,80.8102 21.5,82.5C 23.2433,85.7504 25.5766,88.5838 28.5,91C 32.3438,93.422 36.0105,96.0887 39.5,99C 34.6912,99.7545 30.0245,100.921 25.5,102.5C 31.7454,110.229 39.5787,115.895 49,119.5C 53.2143,127.261 56.881,135.261 60,143.5C 67.7363,155.566 78.2363,164.399 91.5,170C 94.1667,170.333 96.8333,170.667 99.5,171C 102.642,173.904 106.309,175.738 110.5,176.5C 111.609,177.29 112.942,177.79 114.5,178C 107.925,178.532 107.925,179.366 114.5,180.5C 117.151,178.35 119.651,176.017 122,173.5C 122.399,173.728 122.565,174.062 122.5,174.5C 109.18,189.416 92.847,193.916 73.5,188C 31.6685,169.525 12.5019,137.358 16,91.5C 16.1894,87.2335 17.0227,83.2335 18.5,79.5 Z"/></g>
<g><path style="opacity:1" fill="#e9f0f1" d="M 21.5,82.5 C 28.1925,86.9368 35.0258,91.2701 42,95.5C 45.4925,101.123 43.6591,103.79 36.5,103.5C 34.076,103.192 31.7427,103.526 29.5,104.5C 29.6236,105.107 29.9569,105.44 30.5,105.5C 37.2293,110.533 44.5626,114.533 52.5,117.5C 56.5646,124.959 60.0646,132.626 63,140.5C 66.7016,147.208 71.5349,153.041 77.5,158C 83.9443,164.053 91.611,167.053 100.5,167C 104.554,170.527 109.22,172.694 114.5,173.5C 113.558,168.677 111.392,164.344 108,160.5C 106.522,153.376 103.522,147.043 99,141.5C 99.9094,136.24 100.743,130.907 101.5,125.5C 101.976,120.25 100.309,115.917 96.5,112.5C 96.1279,117.79 94.2945,122.457 91,126.5C 88.1845,118.863 84.3511,111.863 79.5,105.5C 79.5,105.167 79.5,104.833 79.5,104.5C 84.6025,108.105 88.4358,112.771 91,118.5C 91.1004,115.097 91.9337,111.93 93.5,109C 95.6354,108.365 97.6354,108.699 99.5,110C 105.354,119.396 106.021,129.23 101.5,139.5C 104.171,142.837 106.337,146.504 108,150.5C 109.277,157.102 112.277,162.769 117,167.5C 119.164,173.82 116.997,176.82 110.5,176.5C 106.309,175.738 102.642,173.904 99.5,171C 96.8333,170.667 94.1667,170.333 91.5,170C 78.2363,164.399 67.7363,155.566 60,143.5C 56.881,135.261 53.2143,127.261 49,119.5C 39.5787,115.895 31.7454,110.229 25.5,102.5C 30.0245,100.921 34.6912,99.7545 39.5,99C 36.0105,96.0887 32.3438,93.422 28.5,91C 25.5766,88.5838 23.2433,85.7504 21.5,82.5 Z"/></g>
<g><path style="opacity:1" fill="#759ea5" d="M 79.5,104.5 C 79.5,104.833 79.5,105.167 79.5,105.5C 77.7041,104.207 76.0375,102.707 74.5,101C 76.7715,101.077 78.4382,102.243 79.5,104.5 Z"/></g>
<g><path style="opacity:1" fill="#70979e" d="M 36.5,103.5 C 34.5,104.167 32.5,104.833 30.5,105.5C 29.9569,105.44 29.6236,105.107 29.5,104.5C 31.7427,103.526 34.076,103.192 36.5,103.5 Z"/></g>
<g><path style="opacity:1" fill="#dde7e8" d="M 94.5,154.5 C 95.7794,156.123 97.1128,157.79 98.5,159.5C 94.3274,160.318 92.9941,158.652 94.5,154.5 Z"/></g>
</svg>
