<?xml version="1.0" encoding="UTF-8"?>
<!DOCTYPE svg PUBLIC "-//W3C//DTD SVG 1.1//EN" "http://www.w3.org/Graphics/SVG/1.1/DTD/svg11.dtd">
<svg xmlns="http://www.w3.org/2000/svg" version="1.1" width="213px" height="208px" style="shape-rendering:geometricPrecision; text-rendering:geometricPrecision; image-rendering:optimizeQuality; fill-rule:evenodd; clip-rule:evenodd" xmlns:xlink="http://www.w3.org/1999/xlink">
<g><path style="opacity:0.996" fill="#777bb3" d="M 29.5,9.5 C 80.1678,9.33334 130.834,9.50001 181.5,10C 190.732,13.5662 196.899,20.0662 200,29.5C 200.667,78.8333 200.667,128.167 200,177.5C 196.5,187.667 189.667,194.5 179.5,198C 130.167,198.667 80.8333,198.667 31.5,198C 21.3333,194.5 14.5,187.667 11,177.5C 10.3333,128.167 10.3333,78.8333 11,29.5C 14.2909,20.047 20.4575,13.3803 29.5,9.5 Z"/></g>
<g><path style="opacity:1" fill="#e6e6ea" d="M 93.5,69.5 C 98.5,69.5 103.5,69.5 108.5,69.5C 107.833,73.8333 107.167,78.1667 106.5,82.5C 112.245,82.2111 117.912,82.7111 123.5,84C 127,85.5 129.5,88 131,91.5C 131.332,88.4937 132.166,85.6604 133.5,83C 143.5,82.3333 153.5,82.3333 163.5,83C 175.071,86.3035 179.238,93.8035 176,105.5C 173.167,115 167,121.167 157.5,124C 151.843,124.499 146.176,124.666 140.5,124.5C 139.512,128.789 138.679,133.122 138,137.5C 133,138.833 128,138.833 123,137.5C 123.291,133.527 123.791,129.527 124.5,125.5C 119.901,125.8 115.401,125.467 111,124.5C 111.508,114.777 112.675,105.11 114.5,95.5C 110.563,95.2065 106.73,95.5399 103,96.5C 101.274,105.858 99.4404,115.192 97.5,124.5C 92.8887,125.61 88.222,125.777 83.5,125C 82.7781,121.898 82.6114,118.732 83,115.5C 74.4846,123.45 64.3179,126.95 52.5,126C 51.607,130.023 50.607,134.023 49.5,138C 44.581,138.802 39.7477,138.635 35,137.5C 37.5494,119.415 40.8828,101.415 45,83.5C 55.0895,82.348 65.2562,82.1814 75.5,83C 81.5009,84.3356 85.6676,87.8356 88,93.5C 89.5162,85.3893 91.3495,77.3893 93.5,69.5 Z"/></g>
<g><path style="opacity:1" fill="#080808" d="M 161.5,85.5 C 171.647,86.8091 175.813,92.4757 174,102.5C 172.627,111.426 167.794,117.593 159.5,121C 152.574,122.339 145.574,122.839 138.5,122.5C 137.446,127.107 136.779,131.773 136.5,136.5C 132.833,136.5 129.167,136.5 125.5,136.5C 128.178,120.101 131.178,103.767 134.5,87.5C 143.235,85.5721 152.235,84.9054 161.5,85.5 Z"/></g>
<g><path style="opacity:1" fill="#0a0a0a" d="M 46.5,84.5 C 55.5062,84.3336 64.5062,84.5002 73.5,85C 84.6729,87.4988 88.5063,94.3321 85,105.5C 82.5087,114.503 76.6754,120.003 67.5,122C 61.8042,122.17 56.1376,122.67 50.5,123.5C 49.714,127.496 48.8806,131.496 48,135.5C 44.6064,136.456 41.1064,136.789 37.5,136.5C 40.2405,119.13 43.2405,101.796 46.5,84.5 Z"/></g>
<g><path style="opacity:1" fill="#e2e2e5" d="M 56.5,92.5 C 61.5805,92.2497 66.5805,92.7497 71.5,94C 74.3492,96.5594 75.1825,99.7261 74,103.5C 73.2756,109.224 70.1089,112.724 64.5,114C 60.5138,114.499 56.5138,114.666 52.5,114.5C 53.2229,107.016 54.5562,99.6822 56.5,92.5 Z"/></g>
<g><path style="opacity:1" fill="#787cb4" d="M 57.5,95.5 C 62.0986,95.2 66.5986,95.5333 71,96.5C 72.9637,109.611 67.4637,114.611 54.5,111.5C 56.2712,106.311 57.2712,100.977 57.5,95.5 Z"/></g>
<g><path style="opacity:1" fill="#494949" d="M 161.5,85.5 C 152.235,84.9054 143.235,85.5721 134.5,87.5C 134.5,86.5 134.5,85.5 134.5,84.5C 143.682,84.1734 152.682,84.5067 161.5,85.5 Z"/></g>
<g><path style="opacity:1" fill="#909090" d="M 104.5,80.5 C 104.5,81.8333 104.5,83.1667 104.5,84.5C 109.363,84.1805 114.03,84.5139 118.5,85.5C 113.5,85.5 108.5,85.5 103.5,85.5C 103.216,83.5853 103.549,81.9187 104.5,80.5 Z"/></g>
<g><path style="opacity:1" fill="#080808" d="M 104.5,80.5 C 103.549,81.9187 103.216,83.5853 103.5,85.5C 108.5,85.5 113.5,85.5 118.5,85.5C 122.232,85.9504 125.398,87.6171 128,90.5C 127.601,101.233 126.434,111.9 124.5,122.5C 120.5,122.5 116.5,122.5 112.5,122.5C 113.848,114.442 115.514,106.442 117.5,98.5C 117.61,96.626 116.944,95.126 115.5,94C 110.581,93.1985 105.748,93.3651 101,94.5C 99.3863,104.011 97.553,113.344 95.5,122.5C 91.9581,122.813 88.6248,122.479 85.5,121.5C 88.4995,104.837 91.4995,88.1702 94.5,71.5C 98.1667,71.5 101.833,71.5 105.5,71.5C 105.296,74.5176 104.963,77.5176 104.5,80.5 Z"/></g>
<g><path style="opacity:1" fill="#e6e6e8" d="M 144.5,92.5 C 149.599,92.1746 154.599,92.6746 159.5,94C 163.185,98.8759 163.351,104.043 160,109.5C 158.786,111.049 157.286,112.215 155.5,113C 150.599,114.325 145.599,114.825 140.5,114.5C 141.618,107.128 142.951,99.7943 144.5,92.5 Z"/></g>
<g><path style="opacity:1" fill="#797cb4" d="M 146.5,95.5 C 160.873,93.021 164.206,97.8544 156.5,110C 152.414,112.053 148.08,112.887 143.5,112.5C 144.301,106.775 145.301,101.108 146.5,95.5 Z"/></g>
<g><path style="opacity:1" fill="#7d7d7d" d="M 85.5,121.5 C 88.6248,122.479 91.9581,122.813 95.5,122.5C 91.9813,123.808 88.3147,123.808 84.5,122.5C 84.6236,121.893 84.9569,121.56 85.5,121.5 Z"/></g>
</svg>
